<?xml version="1.0" encoding="UTF-8"?>
<svg xmlns="http://www.w3.org/2000/svg" id="nocnoc" viewBox="0 0 529.19 85">
    <defs>
    <style>.cls-1{fill:#FFF;}</style>
    </defs>
    <path class="cls-1" d="m130.76,0C105.53,0,85.08,19.04,85.08,42.5s20.45,42.5,45.68,42.5,45.68-19.03,45.68-42.5S155.99,0,130.76,0Zm0,64.51c-13.22,0-23.93-9.92-23.93-22.16s10.71-22.16,23.93-22.16,23.94,9.92,23.94,22.16-10.72,22.16-23.94,22.16Z"></path>
    <path class="cls-1" d="m400.42,0c-25.23,0-45.68,19.04-45.68,42.5s20.45,42.5,45.68,42.5,45.68-19.03,45.68-42.5S425.65,0,400.42,0Zm0,64.51c-13.22,0-23.93-9.92-23.93-22.16s10.71-22.16,23.93-22.16,23.94,9.92,23.94,22.16-10.72,22.16-23.94,22.16Z"></path>
    <path class="cls-1" d="m249.29,59.77l8.84,18.77c-7.18,4.1-15.68,6.46-24.78,6.46-25.82,0-46.75-19.03-46.75-42.5S207.54,0,233.36,0C243.03,0,252.03,2.68,259.49,7.26l-11.58,16.54c-4.08-2.9-9.14-4.62-14.62-4.62-13.48,0-24.39,10.36-24.39,23.14s10.92,23.14,24.39,23.14c6.12,0,11.72-2.14,16-5.69Z"></path>
    <path class="cls-1" d="m516.62,60.72l8.5,18.06c-6.91,3.94-15.08,6.22-23.84,6.22-24.86,0-45.01-18.32-45.01-40.91S476.43,3.18,501.28,3.18c4.76,0,9.34.68,13.65,1.93L518.01,0l3.12,7.38,2.46,5.83.27.63,5.32,12.58-28.58,2.5,4.22-7.02c-1.18-.17-2.38-.26-3.61-.26-12.97,0-23.49,9.97-23.49,22.28s10.52,22.28,23.49,22.28c5.89,0,11.27-2.06,15.4-5.48Z"></path>
    <path class="cls-1" d="m344.57,31.15v53.85h-22.31v-52.04c0-7.15-6.77-12.94-15.14-12.94s-15.13,5.79-15.13,12.94v52.04h-22.31V31.15c0-.82.04-1.65.12-2.46C271.28,12.63,287.42,0,307.11,0s35.84,12.63,37.34,28.69c.08.81.12,1.64.12,2.46Z"></path>
    <path class="cls-1" d="m74.9,31.15v53.85h-22.31v-52.04c0-7.15-6.77-12.94-15.14-12.94s-15.13,5.79-15.13,12.94v52.04H0V31.15c0-.82.04-1.65.12-2.46C1.62,12.63,17.75,0,37.45,0s35.84,12.63,37.34,28.69c.08.81.12,1.64.12,2.46Z"></path>
</svg> 